<svg width="72" height="31" viewBox="0 0 72 31" fill="none" xmlns="http://www.w3.org/2000/svg">
<path d="M67.1802 18.2954C67.1802 15.1213 72.0001 15.1213 72.0001 18.2954C72.0001 21.4694 67.1802 21.4694 67.1802 18.2954Z" fill="#D83834"/>
<path d="M71.706 14.0434V0.96452C71.706 0.431839 71.2742 3.91006e-05 70.7416 3.91006e-05H68.4383C67.9057 3.91006e-05 67.4739 0.431839 67.4739 0.96452V14.0434C67.4739 14.576 67.9057 15.0078 68.4383 15.0078H70.7416C71.2742 15.0078 71.706 14.576 71.706 14.0434Z" fill="#D83834"/>
<path d="M6.61255 17.3328C7.47215 17.3328 8.59628 17.0683 9.27819 16.2293C9.70804 15.7006 9.4649 14.892 8.82538 14.6567C8.17731 14.4183 7.44249 14.3162 6.87698 14.3351C5.37824 14.3351 4.23208 14.7171 4.23208 15.8339C4.23208 16.9801 5.34886 17.3328 6.61255 17.3328ZM13.9892 11.3962V19.6011C13.9892 20.1338 13.5574 20.5656 13.0248 20.5656H10.6764C10.5171 20.5656 10.379 20.455 10.344 20.2995L10.2099 19.7024C10.1544 19.4549 9.85746 19.3529 9.66173 19.5142C8.37378 20.5753 6.80037 20.7419 5.58391 20.7419C2.70386 20.7419 0 19.3019 0 15.8339C0 12.6305 2.90962 11.0141 5.9072 11.0141C6.76894 11.0141 8.26452 11.2327 9.33844 11.7075C9.56383 11.8072 9.81599 11.6426 9.81599 11.3962C9.81599 9.60341 7.90562 9.25073 6.34811 9.25073C5.12868 9.25073 3.77387 9.55152 2.75713 9.86263C2.20669 10.0311 1.63282 9.68607 1.52589 9.12047L1.25904 7.70996C1.17489 7.26496 1.40948 6.81624 1.82808 6.64339C3.31818 6.02796 4.93119 5.63586 6.34811 5.63586C10.6096 5.63586 13.9892 6.69388 13.9892 11.3962Z" fill="#00C3D1"/>
<path d="M53.9584 11.5136C53.8703 9.92665 52.2539 9.19192 50.4906 9.19192C48.786 9.19192 47.4929 10.0736 47.0815 11.5136H53.9584ZM47.0815 14.5995C47.2871 16.0101 48.6391 17.1563 51.0194 17.1563C51.9564 17.1563 53.1877 16.9796 54.1678 16.4338C54.5573 16.2167 55.0456 16.3039 55.3438 16.6352L56.4844 17.9026C56.8714 18.3325 56.802 19.0133 56.3225 19.3368C54.7912 20.3698 52.7484 20.8007 50.9314 20.8007C45.6707 20.8007 42.7905 17.7147 42.7905 13.0712C42.7905 8.66287 45.7589 5.57705 50.4906 5.57705C55.1771 5.57705 58.328 8.35743 57.8567 13.7171C57.8129 14.2156 57.3952 14.5995 56.8947 14.5995H47.0815Z" fill="#00C3D1"/>
<path d="M18.2141 19.1088C17.9573 18.8369 17.2476 17.9724 17.0397 17.6616C15.1625 14.8547 15.5527 10.9388 17.8935 8.43608C20.4312 5.71865 24.5927 5.23422 27.6876 7.29224C27.8854 7.42409 28.1128 7.49001 28.3402 7.49001C28.5744 7.49001 28.8063 7.41953 29.0087 7.28313C31.0735 5.88685 33.3111 5.50945 35.7352 6.26435C41.1246 7.94031 42.796 14.9055 38.787 18.9101C37.8245 19.8717 37.0544 20.6402 36.3488 21.3428L36.345 21.3465C35.3255 22.3617 34.4387 23.241 33.3023 24.3641L26.9819 30.4217C26.6052 30.7983 25.9946 30.7983 25.6179 30.4217L24.4253 29.229C24.0487 28.8524 24.0487 28.2418 24.4253 27.8652L33.7154 18.7932C34.4349 18.0694 35.2171 17.2803 36.2105 16.2745C37.7978 14.6645 37.7704 12.2109 36.1901 10.6669C34.6415 9.15686 32.1924 9.16374 30.6232 10.685C30.364 10.9374 30.1185 11.1989 29.8661 11.4559C28.8882 12.4519 27.8059 12.4542 26.8553 11.4127C26.1686 10.66 25.4477 9.98466 24.4176 9.74134C22.6598 9.32293 20.8929 10.0802 19.9992 11.6424C19.1169 13.1819 19.3193 15.0465 20.5722 16.3495C21.6723 17.4971 20.36 16.1412 21.5163 17.3335L21.89 17.7072C22.2667 18.0838 22.2667 18.6945 21.8901 19.071L20.7256 20.2355C20.349 20.6122 19.7383 20.6122 19.3617 20.2355L18.2141 19.1088Z" fill="#00C3D1"/>
<path d="M64.8048 2.3954C64.8048 5.56945 59.9849 5.56945 59.9849 2.3954C59.9849 -0.778661 64.8048 -0.778661 64.8048 2.3954Z" fill="#00C3D1"/>
<path d="M60.2788 6.64744V19.7263C60.2788 20.259 60.7106 20.6908 61.2432 20.6908H63.5465C64.0791 20.6908 64.5109 20.259 64.5109 19.7263V6.64744C64.5109 6.11476 64.0791 5.68305 63.5465 5.68305H61.2432C60.7106 5.68305 60.2788 6.11476 60.2788 6.64744Z" fill="#00C3D1"/>
</svg>
