<svg width="150" height="150" viewBox="0 0 150 150" fill="none" xmlns="http://www.w3.org/2000/svg">
<rect width="150" height="150" rx="5" fill="#FAFAFA"/>
<path d="M96.5 95H54.5C51.95 95 50 93.05 50 90.5V60.5C50 57.95 51.95 56 54.5 56H96.5C99.05 56 101 57.95 101 60.5V90.5C101 93.05 99.05 95 96.5 95ZM54.5 59C53.6 59 53 59.6 53 60.5V90.5C53 91.4 53.6 92 54.5 92H96.5C97.4 92 98 91.4 98 90.5V60.5C98 59.6 97.4 59 96.5 59H54.5Z" fill="#E0E0E0"/>
<path d="M83 74C79.6999 74 77 71.3 77 68C77 64.7 79.6999 62 83 62C86.2999 62 89 64.7 89 68C89 71.3 86.2999 74 83 74ZM83 65C81.3499 65 80 66.35 80 68C80 69.65 81.3499 71 83 71C84.6499 71 86 69.65 86 68C86 66.35 84.6499 65 83 65ZM90.9499 94.55L66.5 71.6L52.55 84.5L50.45 82.4L66.5 67.4L93.0499 92.45L90.9499 94.55Z" fill="#E0E0E0"/>
<path d="M98.6 87.05L90.5 80.45L83.75 86L81.8 83.6L90.5 76.55L100.4 84.65L98.6 87.05Z" fill="#E0E0E0"/>
</svg>
