<svg width="20" height="20" viewBox="0 0 20 20" fill="none" xmlns="http://www.w3.org/2000/svg">
<path d="M10 19.0444C10.35 19.0364 10.6858 18.9048 10.9481 18.673C11.2104 18.4412 11.3823 18.1241 11.4333 17.7778H8.51112C8.5636 18.1335 8.74352 18.4581 9.0174 18.6911C9.29128 18.9241 9.64046 19.0496 10 19.0444Z" fill="#424242"/>
<path d="M18.25 15.6278L18.0611 15.4611C17.5253 14.9837 17.0562 14.4362 16.6667 13.8334C16.2412 13.0014 15.9863 12.0929 15.9167 11.1611V8.4167C15.9144 8.08334 15.8847 7.75073 15.8278 7.42226C14.8867 7.22883 14.0414 6.71616 13.435 5.97102C12.8286 5.22589 12.4983 4.29409 12.5 3.33337V2.98337C11.92 2.69792 11.2968 2.51021 10.6556 2.42781V1.72781C10.6556 1.53111 10.5774 1.34246 10.4383 1.20337C10.2992 1.06428 10.1106 0.986145 9.9139 0.986145C9.7172 0.986145 9.52855 1.06428 9.38946 1.20337C9.25037 1.34246 9.17224 1.53111 9.17224 1.72781V2.45559C7.73652 2.65812 6.42255 3.37322 5.47291 4.46889C4.52327 5.56455 4.00208 6.96678 4.00557 8.4167V11.1611C3.93599 12.0929 3.681 13.0014 3.25557 13.8334C2.87273 14.4347 2.41123 14.9821 1.88335 15.4611L1.69446 15.6278V17.1945H18.25V15.6278Z" fill="#424242"/>
<path d="M16.6667 6.1111C18.2008 6.1111 19.4445 4.86744 19.4445 3.33332C19.4445 1.7992 18.2008 0.555542 16.6667 0.555542C15.1326 0.555542 13.8889 1.7992 13.8889 3.33332C13.8889 4.86744 15.1326 6.1111 16.6667 6.1111Z" fill="#EE2020"/>
</svg>
