<svg width="20" height="20" viewBox="0 0 20 20" fill="none" xmlns="http://www.w3.org/2000/svg">
<g clip-path="url(#clip0_218_122)">
<path d="M15.8333 0.833344H4.16667C3.25 0.833344 2.5 1.58334 2.5 2.50001V8.33334C2.5 9.25001 3.25 10 4.16667 10H15.8333C16.75 10 17.5 9.25001 17.5 8.33334V2.50001C17.5 1.58334 16.75 0.833344 15.8333 0.833344ZM15.8333 5.83334H12.5C12.5 7.18334 11.35 8.33334 10 8.33334C8.65 8.33334 7.5 7.18334 7.5 5.83334H4.16667V2.50001H15.8333V5.83334ZM12.5 11.6667H17.5V14.1667C17.5 15.0833 16.75 15.8333 15.8333 15.8333H4.16667C3.25 15.8333 2.5 15.0833 2.5 14.1667V11.6667H7.5C7.5 13.05 8.61667 14.1667 10 14.1667C11.3833 14.1667 12.5 13.05 12.5 11.6667Z" fill="#424242"/>
</g>
<defs>
<clipPath id="clip0_218_122">
<rect width="20" height="20" fill="white"/>
</clipPath>
</defs>
</svg>
