<svg width="20" height="19" viewBox="0 0 20 19" fill="none" xmlns="http://www.w3.org/2000/svg">
<path d="M13 17.5C13 18.3284 12.3284 19 11.5 19H1.5C0.67157 19 0 18.3284 0 17.5C0 16.6716 0.67157 16 1.5 16H11.5C12.3284 16 13 16.6716 13 17.5Z" fill="#757575"/>
<path d="M20 9.5C20 10.3284 19.3284 11 18.5 11H1.5C0.67157 11 0 10.3284 0 9.5C0 8.67157 0.67157 8 1.5 8H18.5C19.3284 8 20 8.67157 20 9.5Z" fill="#757575"/>
<path d="M18.5 3C19.3284 3 20 2.32843 20 1.5C20 0.671574 19.3284 0 18.5 0H1.5C0.67157 0 0 0.671574 0 1.5C0 2.32843 0.67157 3 1.5 3H18.5Z" fill="#757575"/>
</svg>
