<svg width="141" height="61" viewBox="0 0 141 61" fill="none" xmlns="http://www.w3.org/2000/svg">
<path d="M131.561 35.8284C131.561 29.6125 141 29.6125 141 35.8284C141 42.0443 131.561 42.0443 131.561 35.8284Z" fill="#D83834"/>
<path d="M140.424 27.5015V1.88881C140.424 0.845641 139.579 3.42773e-05 138.536 3.42773e-05H134.025C132.982 3.42773e-05 132.137 0.845641 132.137 1.88881V27.5015C132.137 28.5447 132.982 29.3901 134.025 29.3901H138.536C139.579 29.3901 140.424 28.5447 140.424 27.5015Z" fill="#D83834"/>
<path d="M12.9496 33.9435C14.633 33.9435 16.8344 33.4254 18.1698 31.7825C19.0116 30.7469 18.5354 29.1635 17.283 28.7027C16.0139 28.2358 14.5749 28.0359 13.4674 28.0728C10.5324 28.0728 8.28782 28.821 8.28782 31.008C8.28782 33.2526 10.4748 33.9435 12.9496 33.9435ZM27.3955 22.3175V38.3854C27.3955 39.4286 26.5499 40.2742 25.5069 40.2742H20.908C20.5959 40.2742 20.3255 40.0577 20.257 39.7531L19.9945 38.5839C19.8858 38.0992 19.3042 37.8994 18.9209 38.2154C16.3986 40.2933 13.3174 40.6196 10.9352 40.6196C5.29505 40.6196 0 37.7995 0 31.008C0 24.7346 5.69801 21.5693 11.5683 21.5693C13.2558 21.5693 16.1847 21.9974 18.2878 22.9273C18.7292 23.1225 19.223 22.8002 19.223 22.3175C19.223 18.8067 15.4818 18.116 12.4317 18.116C10.0437 18.116 7.3905 18.7051 5.39939 19.3143C4.32144 19.6443 3.19761 18.9685 2.98821 17.8609L2.46562 15.0987C2.30084 14.2272 2.76024 13.3485 3.57999 13.01C6.49809 11.8047 9.65692 11.0369 12.4317 11.0369C20.7771 11.0369 27.3955 13.1088 27.3955 22.3175Z" fill="#00C3D1"/>
<path d="M105.669 22.5476C105.496 19.4397 102.331 18.0009 98.8773 18.0009C95.5391 18.0009 93.0069 19.7274 92.2011 22.5476H105.669ZM92.2011 28.5907C92.6039 31.3533 95.2514 33.5978 99.913 33.5978C101.748 33.5978 104.159 33.2519 106.079 32.1828C106.841 31.7579 107.798 31.9285 108.382 32.5774L110.615 35.0592C111.373 35.9012 111.237 37.2344 110.298 37.8679C107.299 39.8909 103.299 40.7347 99.7406 40.7347C89.4384 40.7347 83.7981 34.6914 83.7981 25.5979C83.7981 16.9648 89.6112 10.9218 98.8773 10.9218C108.055 10.9218 114.226 16.3667 113.303 26.8627C113.217 27.839 112.399 28.5907 111.419 28.5907H92.2011Z" fill="#00C3D1"/>
<path d="M35.6694 37.4214C35.1664 36.889 33.7766 35.196 33.3694 34.5873C29.6933 29.0905 30.4573 21.4219 35.0413 16.5207C40.0112 11.1991 48.1606 10.2504 54.2215 14.2807C54.6088 14.5389 55.0542 14.668 55.4996 14.668C55.9583 14.668 56.4124 14.53 56.8088 14.2628C60.8524 11.5285 65.2343 10.7894 69.9814 12.2677C80.5357 15.5498 83.8088 29.1901 75.9579 37.0323C74.0729 38.9154 72.5649 40.4204 71.183 41.7964L71.1757 41.8037C69.1792 43.7917 67.4424 45.5137 65.217 47.7131L52.8395 59.5758C52.1019 60.3134 50.9061 60.3134 50.1685 59.5758L47.8329 57.2402C47.0954 56.5027 47.0954 55.3068 47.8329 54.5694L66.026 36.8034C67.435 35.3859 68.9668 33.8407 70.9123 31.8709C74.0206 28.7181 73.9671 23.913 70.8722 20.8893C67.8396 17.9322 63.0434 17.9457 59.9705 20.9248C59.4629 21.4192 58.982 21.9312 58.4878 22.4345C56.5728 24.385 54.4532 24.3895 52.5917 22.3498C51.2468 20.8758 49.8351 19.5533 47.8178 19.0768C44.3754 18.2574 40.9153 19.7403 39.165 22.7998C37.4372 25.8145 37.8336 29.4661 40.2872 32.0178C42.4417 34.2652 39.8717 31.61 42.1361 33.9449L42.8679 34.6767C43.6056 35.4141 43.6056 36.6101 42.8681 37.3475L40.5877 39.6279C39.8501 40.3656 38.6541 40.3656 37.9167 39.6279L35.6694 37.4214Z" fill="#00C3D1"/>
<path d="M126.909 4.69095C126.909 10.9068 117.47 10.9068 117.47 4.69095C117.47 -1.52492 126.909 -1.52492 126.909 4.69095Z" fill="#00C3D1"/>
<path d="M118.046 13.0179V38.6306C118.046 39.6738 118.891 40.5194 119.934 40.5194H124.445C125.488 40.5194 126.334 39.6738 126.334 38.6306V13.0179C126.334 11.9747 125.488 11.1293 124.445 11.1293H119.934C118.891 11.1293 118.046 11.9747 118.046 13.0179Z" fill="#00C3D1"/>
<path d="M86.7449 46.5923C85.7214 46.5923 85.0136 47.3616 85.0136 48.3387C85.0136 49.3467 85.7214 50.0776 86.7449 50.0776C87.791 50.0776 88.4758 49.3389 88.4758 48.3387C88.4758 47.354 87.791 46.5923 86.7449 46.5923ZM86.7449 51.1625C85.0213 51.1625 83.8364 50.0929 83.8364 48.3387C83.8364 46.5847 85.0213 45.5151 86.7449 45.5151C88.4681 45.5151 89.653 46.5847 89.653 48.3387C89.653 50.0929 88.4681 51.1625 86.7449 51.1625Z" fill="#00C3D1"/>
<path d="M94.9768 51.0316V49.0235C94.9768 48.4387 94.7228 48.1388 94.1919 48.1388C93.6764 48.1311 93.3302 48.5772 93.3302 49.0696V51.0316H92.2379V47.2309H93.2379L93.2762 47.7156C93.6148 47.2769 94.0457 47.1307 94.5074 47.1384C95.3614 47.1384 96.0921 47.5386 96.0921 49.0159V51.0316H94.9768Z" fill="#00C3D1"/>
<path d="M99.7933 49.1389C99.7933 48.662 99.5011 48.1387 98.8316 48.1387C98.17 48.1387 97.8773 48.662 97.8773 49.1389C97.8773 49.6159 98.1624 50.1314 98.8316 50.1314C99.5087 50.1314 99.7933 49.6389 99.7933 49.1389ZM96.754 49.1389C96.754 47.9927 97.5697 47.1463 98.8316 47.1463C100.101 47.1463 100.917 47.9927 100.917 49.1389C100.917 50.2853 100.124 51.1161 98.8316 51.1161C97.5468 51.1161 96.754 50.2853 96.754 49.1389Z" fill="#00C3D1"/>
<path d="M103.294 49.8775L103.74 48.6235L104.286 47.2309H105.533L103.902 51.0547H102.686L101.055 47.2309H102.301L102.848 48.6235L103.294 49.8775Z" fill="#00C3D1"/>
<path d="M108.711 49.1389C108.711 48.662 108.418 48.1387 107.749 48.1387C107.087 48.1387 106.794 48.662 106.794 49.1389C106.794 49.6159 107.08 50.1314 107.749 50.1314C108.426 50.1314 108.711 49.6389 108.711 49.1389ZM105.671 49.1389C105.671 47.9927 106.487 47.1463 107.749 47.1463C109.018 47.1463 109.834 47.9927 109.834 49.1389C109.834 50.2853 109.041 51.1161 107.749 51.1161C106.464 51.1161 105.671 50.2853 105.671 49.1389Z" fill="#00C3D1"/>
<path d="M114.766 48.3081C114.481 48.1079 114.212 48.0311 113.865 48.0311C113.504 48.0311 113.319 48.1617 113.319 48.3465C113.319 48.5542 113.511 48.6697 113.881 48.6773C114.627 48.7005 115.527 48.8543 115.535 49.9006C115.543 50.516 115.081 51.1777 113.873 51.1777C113.311 51.1777 112.734 51.0701 112.088 50.5315L112.565 49.7467C113.034 50.1313 113.488 50.2161 113.888 50.2238C114.212 50.2314 114.465 50.1007 114.458 49.9006C114.458 49.7236 114.327 49.5776 113.811 49.5621C113.104 49.5313 112.219 49.2389 112.219 48.3465C112.219 47.4847 113.034 47.1232 113.858 47.1232C114.442 47.1232 114.912 47.2693 115.312 47.6156L114.766 48.3081Z" fill="#00C3D1"/>
<path d="M116.196 51.0316H117.304V47.2232H116.196V51.0316ZM117.381 46.2228C117.381 47.0539 116.12 47.0539 116.12 46.2228C116.12 45.392 117.381 45.392 117.381 46.2228Z" fill="#00C3D1"/>
<path d="M120.636 48.3081C120.351 48.1079 120.082 48.0311 119.736 48.0311C119.374 48.0311 119.189 48.1617 119.189 48.3465C119.189 48.5542 119.382 48.6697 119.751 48.6773C120.497 48.7005 121.397 48.8543 121.405 49.9006C121.413 50.516 120.951 51.1777 119.743 51.1777C119.181 51.1777 118.605 51.0701 117.958 50.5315L118.435 49.7467C118.905 50.1313 119.359 50.2161 119.759 50.2238C120.082 50.2314 120.336 50.1007 120.328 49.9006C120.328 49.7236 120.197 49.5776 119.682 49.5621C118.974 49.5313 118.089 49.2389 118.089 48.3465C118.089 47.4847 118.905 47.1232 119.728 47.1232C120.313 47.1232 120.782 47.2693 121.182 47.6156L120.636 48.3081Z" fill="#00C3D1"/>
<path d="M123.575 46.1921V47.254H124.536V48.1772H123.567V49.6082C123.567 50.0083 123.79 50.1161 123.998 50.1161C124.128 50.1161 124.336 50.0853 124.459 50.0236L124.713 50.9471C124.436 51.0547 124.213 51.1008 123.913 51.1161C123.09 51.1547 122.467 50.7931 122.467 49.6082V48.1772H121.79V47.254H122.467V46.3154L123.575 46.1921Z" fill="#00C3D1"/>
<path d="M127.998 48.6849C127.975 48.2694 127.552 48.0771 127.09 48.0771C126.644 48.0771 126.306 48.308 126.198 48.6849H127.998ZM126.198 49.4929C126.252 49.8621 126.606 50.1622 127.229 50.1622C127.529 50.1622 127.944 50.0928 128.214 49.8621L128.837 50.5546C128.429 50.9546 127.775 51.1161 127.206 51.1161C125.828 51.1161 125.075 50.3082 125.075 49.0928C125.075 47.9388 125.852 47.1308 127.09 47.1308C128.383 47.1308 129.229 47.9388 128.991 49.4929H126.198Z" fill="#00C3D1"/>
<path d="M132.176 51.0316V48.9927C132.176 48.4926 131.976 48.1617 131.522 48.1617C131.083 48.1617 130.837 48.5696 130.837 49.0004V51.0316H129.729V47.2309H130.698L130.776 47.6617C131.014 47.2462 131.453 47.1462 131.776 47.1462C132.191 47.1462 132.638 47.3001 132.884 47.8542C133.222 47.3385 133.584 47.1384 134.145 47.1384C134.938 47.1384 135.661 47.5386 135.661 48.9543V51.0316H134.546V48.9774C134.546 48.5004 134.415 48.1848 133.969 48.1848C133.53 48.1848 133.268 48.5619 133.268 48.9927V51.0316H132.176Z" fill="#00C3D1"/>
<path d="M137.438 49.1312C137.438 49.7622 137.885 50.1314 138.439 50.1314C139.062 50.1314 139.447 49.6467 139.447 49.1697C139.447 48.6236 139.1 48.1232 138.439 48.1232C137.885 48.1232 137.438 48.5003 137.438 49.1312ZM139.485 47.2308H140.524V51.0317H139.523L139.462 50.5546C139.208 50.9546 138.662 51.1085 138.292 51.1161C137.154 51.124 136.331 50.3854 136.331 49.1312C136.331 47.8694 137.2 47.1308 138.323 47.1463C138.8 47.1463 139.246 47.3309 139.447 47.6693L139.485 47.2308Z" fill="#00C3D1"/>
<path d="M84.9134 58.3638C84.9134 58.91 85.2519 59.3408 85.8446 59.3408C86.3446 59.3408 86.8677 59.087 86.8677 58.3638C86.8677 57.7252 86.3522 57.3867 85.8446 57.3867C85.2752 57.3867 84.9134 57.7944 84.9134 58.3638ZM87.9987 54.8861V60.2642H87.0061L86.9369 59.7793C86.5831 60.2334 86.1523 60.3334 85.6751 60.3334C84.5594 60.3334 83.7981 59.5486 83.7981 58.3638C83.7981 57.1327 84.5751 56.3865 85.6907 56.3865C86.1368 56.3865 86.56 56.525 86.883 56.9249V54.8861H87.9987Z" fill="#00C3D1"/>
<path d="M89.8298 58.3637C89.8298 58.9946 90.2763 59.3639 90.8302 59.3639C91.4531 59.3639 91.838 58.8792 91.838 58.4021C91.838 57.8561 91.4919 57.3557 90.8302 57.3557C90.2763 57.3557 89.8298 57.7328 89.8298 58.3637ZM91.8763 56.4633H92.9151V60.2641H91.9149L91.8533 59.7871C91.5997 60.1871 91.0532 60.341 90.6841 60.3486C89.5452 60.3565 88.7222 59.6179 88.7222 58.3637C88.7222 57.1019 89.5914 56.3633 90.7147 56.3788C91.1918 56.3788 91.6379 56.5634 91.838 56.9017L91.8763 56.4633Z" fill="#00C3D1"/>
<path d="M98.0698 57.5405C97.7852 57.3404 97.5159 57.2635 97.1696 57.2635C96.8079 57.2635 96.6231 57.3941 96.6231 57.5789C96.6231 57.7867 96.8156 57.9021 97.1848 57.9098C97.9312 57.9329 98.8314 58.0867 98.8393 59.133C98.8469 59.7485 98.3852 60.4102 97.1772 60.4102C96.6155 60.4102 96.0386 60.3025 95.3924 59.7639L95.8691 58.9791C96.3385 59.3637 96.7926 59.4486 97.1925 59.4562C97.5159 59.4639 97.7695 59.3331 97.7619 59.133C97.7619 58.956 97.631 58.81 97.1157 58.7945C96.4077 58.7637 95.523 58.4713 95.523 57.5789C95.523 56.7171 96.3385 56.3557 97.1619 56.3557C97.7466 56.3557 98.216 56.5017 98.6159 56.848L98.0698 57.5405Z" fill="#00C3D1"/>
<path d="M100.563 56.4633V58.4713C100.563 59.0562 100.816 59.3561 101.348 59.3561C101.863 59.3637 102.209 58.9176 102.209 58.4253V56.4633H103.302V60.264H102.301L102.263 59.764C101.924 60.2179 101.494 60.3486 101.032 60.341C100.178 60.341 99.4471 59.9562 99.4471 58.479V56.4633H100.563Z" fill="#00C3D1"/>
<path d="M105.133 58.3637C105.133 58.9946 105.579 59.3639 106.133 59.3639C106.756 59.3639 107.141 58.8792 107.141 58.4021C107.141 57.8561 106.794 57.3557 106.133 57.3557C105.579 57.3557 105.133 57.7328 105.133 58.3637ZM107.179 56.4633H108.218V60.2641H107.218L107.156 59.7871C106.902 60.1871 106.356 60.341 105.987 60.3486C104.848 60.3565 104.025 59.6179 104.025 58.3637C104.025 57.1019 104.894 56.3633 106.017 56.3788C106.495 56.3788 106.941 56.5634 107.141 56.9017L107.179 56.4633Z" fill="#00C3D1"/>
<path d="M114.319 59.764C113.865 60.2101 113.319 60.3487 112.834 60.3487C111.726 60.3487 110.756 59.7409 110.756 58.3714C110.756 57.0943 111.718 56.3789 112.826 56.3789C113.38 56.3789 113.819 56.5018 114.203 56.9018L113.588 57.6019C113.357 57.4249 113.103 57.3789 112.872 57.3789C112.319 57.3789 111.872 57.7405 111.872 58.3714C111.872 58.979 112.334 59.3254 112.849 59.3254C113.095 59.3254 113.434 59.2254 113.619 59.0408L114.319 59.764Z" fill="#00C3D1"/>
<path d="M116.004 60.264H114.904V54.8861H116.004V60.264Z" fill="#00C3D1"/>
<path d="M118.074 56.4634H116.958V60.264H118.074V56.4634ZM118.535 54.9322L117.904 56.0247H116.95V55.971L117.327 54.8861H118.535V54.9322Z" fill="#00C3D1"/>
<path d="M121.751 60.264V58.256C121.751 57.6711 121.497 57.3712 120.966 57.3712C120.451 57.3636 120.104 57.8097 120.104 58.3021V60.264H119.012V56.4634H120.012L120.05 56.9481C120.389 56.5094 120.82 56.3632 121.282 56.3709C122.136 56.3709 122.866 56.7711 122.866 58.2483V60.264H121.751Z" fill="#00C3D1"/>
<path d="M123.751 60.264H124.859V56.4557H123.751V60.264ZM124.936 55.4553C124.936 56.2864 123.675 56.2864 123.675 55.4553C123.675 54.6245 124.936 54.6245 124.936 55.4553Z" fill="#00C3D1"/>
<path d="M129.137 59.764C128.683 60.2101 128.137 60.3487 127.652 60.3487C126.544 60.3487 125.574 59.7409 125.574 58.3714C125.574 57.0943 126.536 56.3789 127.644 56.3789C128.198 56.3789 128.637 56.5018 129.021 56.9018L128.406 57.6019C128.175 57.4249 127.921 57.3789 127.69 57.3789C127.137 57.3789 126.69 57.7405 126.69 58.3714C126.69 58.979 127.152 59.3254 127.667 59.3254C127.914 59.3254 128.252 59.2254 128.437 59.0408L129.137 59.764Z" fill="#00C3D1"/>
<path d="M130.491 58.3637C130.491 58.9946 130.937 59.3639 131.491 59.3639C132.114 59.3639 132.499 58.8792 132.499 58.4021C132.499 57.8561 132.153 57.3557 131.491 57.3557C130.937 57.3557 130.491 57.7328 130.491 58.3637ZM132.537 56.4633H133.576V60.2641H132.576L132.514 59.7871C132.261 60.1871 131.714 60.341 131.345 60.3486C130.206 60.3565 129.383 59.6179 129.383 58.3637C129.383 57.1019 130.252 56.3633 131.376 56.3788C131.853 56.3788 132.299 56.5634 132.499 56.9017L132.537 56.4633Z" fill="#00C3D1"/>
</svg>
