<svg width="26" height="26" viewBox="0 0 26 26" fill="none" xmlns="http://www.w3.org/2000/svg">
<path d="M7.00012 10.8341C7.00012 11.1893 7.14122 11.53 7.39239 11.7811C7.64355 12.0323 7.98421 12.1734 8.33941 12.1734C8.69461 12.1734 9.03526 12.0323 9.28643 11.7811C9.53759 11.53 9.67869 11.1893 9.67869 10.8341C9.67869 10.4789 9.53759 10.1383 9.28643 9.88709C9.03526 9.63592 8.69461 9.49482 8.33941 9.49482C7.98421 9.49482 7.64355 9.63592 7.39239 9.88709C7.14122 10.1383 7.00012 10.4789 7.00012 10.8341ZM16.8216 10.8341C16.8216 11.1893 16.9627 11.53 17.2138 11.7811C17.465 12.0323 17.8056 12.1734 18.1608 12.1734C18.516 12.1734 18.8567 12.0323 19.1079 11.7811C19.359 11.53 19.5001 11.1893 19.5001 10.8341C19.5001 10.4789 19.359 10.1383 19.1079 9.88709C18.8567 9.63592 18.516 9.49482 18.1608 9.49482C17.8056 9.49482 17.465 9.63592 17.2138 9.88709C16.9627 10.1383 16.8216 10.4789 16.8216 10.8341ZM13.2501 0.873169C6.34722 0.873169 0.750122 6.47027 0.750122 13.3732C0.750122 20.2761 6.34722 25.8732 13.2501 25.8732C20.153 25.8732 25.7501 20.2761 25.7501 13.3732C25.7501 6.47027 20.153 0.873169 13.2501 0.873169ZM20.5883 20.7113C19.6341 21.6656 18.5236 22.4133 17.2875 22.9379C16.0124 23.4792 14.6536 23.7526 13.2501 23.7526C11.8467 23.7526 10.4878 23.4792 9.20994 22.9379C7.97577 22.4167 6.8547 21.6605 5.90916 20.7113C4.95492 19.7571 4.20715 18.6466 3.6826 17.4106C3.1441 16.1354 2.87066 14.7766 2.87066 13.3732C2.87066 11.9697 3.1441 10.6109 3.68539 9.33299C4.20662 8.09881 4.96284 6.97775 5.91195 6.03221C6.86619 5.07797 7.97668 4.3302 9.21273 3.80565C10.4878 3.26714 11.8467 2.9937 13.2501 2.9937C14.6536 2.9937 16.0124 3.26714 17.2903 3.80844C18.5245 4.32966 19.6455 5.08588 20.5911 6.035C21.5453 6.98924 22.2931 8.09973 22.8176 9.33578C23.3561 10.6109 23.6296 11.9697 23.6296 13.3732C23.6296 14.7766 23.3561 16.1354 22.8149 17.4133C22.2943 18.647 21.5379 19.7673 20.5883 20.7113ZM17.4912 13.9591H16.1491C16.0319 13.9591 15.9315 14.0484 15.9231 14.1656C15.8171 15.5467 14.6592 16.6377 13.2501 16.6377C11.8411 16.6377 10.6804 15.5467 10.5771 14.1656C10.5688 14.0484 10.4683 13.9591 10.3511 13.9591H9.00905C8.97877 13.9591 8.94881 13.9652 8.92097 13.9771C8.89314 13.989 8.86801 14.0065 8.84713 14.0284C8.82625 14.0503 8.81005 14.0762 8.79951 14.1046C8.78898 14.133 8.78432 14.1632 8.78584 14.1935C8.9086 16.5456 10.8645 18.4234 13.2501 18.4234C15.6357 18.4234 17.5916 16.5456 17.7144 14.1935C17.7159 14.1632 17.7113 14.133 17.7007 14.1046C17.6902 14.0762 17.674 14.0503 17.6531 14.0284C17.6322 14.0065 17.6071 13.989 17.5793 13.9771C17.5514 13.9652 17.5215 13.9591 17.4912 13.9591Z" fill="#D32F2F"/>
</svg>
